# xmcd
#
# Track frame offsets: 
#        150
#        17875
#        37244
#        56760
#        71393
#        91444
#        110276
#        128612
#        144170
#        164721
#        174619
#        198048
#        214511
#        232206
#        249726
#        267296
#        290905
#
# Disc length: 4188 seconds
#
# Revision: 2
# Processed by: cddbd v1.5.1PL2 Copyright (c) Steve Scherf et al.
# Submitted via: ExactAudioCopy v0.95a5
#
DISCID=03105a11
DTITLE=Various Artist - Latin Touch - Salsa to Latinhouse CD1
DYEAR=2004
DGENRE=Salsa
TTITLE0=The New Swing Sextet - Vente Pa Ya
TTITLE1=Tipica '73 - Guaguanco De Los Violentos
TTITLE2=Orchestra Harlow and Ismael Miranda - Vencere
TTITLE3=Charlie Palmieri - La Llave Y El Candao
TTITLE4=Azuquita - Mira Mi Amor
TTITLE5=Joel Uriola - Preparate Bailador
TTITLE6=Louie Ramirez - Tipico
TTITLE7=Tito Rodriguez - Buenas Noches Che Che
TTITLE8=Orlando Marin And His Orchestra Vol.2 - El Timbalero
TTITLE9=Eddie Palmieri - Yo Sin Ti
TTITLE10=Ray Barretto - Arrpeientete
TTITLE11=Babo Jimenez Y Su Banda - Fuego
TTITLE12=Rafi Val Y La Diferente - El Coco
TTITLE13=Joey Pastrana - Asi Na Ma
TTITLE14=The New Swing Sextet - El Nuevo Swing Les Toca
TTITLE15=Tipica '73 - Sonaremos El Tambo
TTITLE16=Cheo Feliciano - Salsaludando
EXTD=YEAR: 2004
EXTT0=
EXTT1=
EXTT2=
EXTT3=
EXTT4=
EXTT5=
EXTT6=
EXTT7=
EXTT8=
EXTT9=
EXTT10=
EXTT11=
EXTT12=
EXTT13=
EXTT14=
EXTT15=
EXTT16=
PLAYORDER=
